<?xml version="1.0" standalone="no"?>
<!DOCTYPE svg PUBLIC "-//W3C//DTD SVG 20010904//EN"
 "http://www.w3.org/TR/2001/REC-SVG-20010904/DTD/svg10.dtd">
<svg version="1.0" xmlns="http://www.w3.org/2000/svg"
 width="512.000000pt" height="512.000000pt" viewBox="0 0 512.000000 512.000000"
 preserveAspectRatio="xMidYMid meet">
<metadata>
Created by potrace 1.14, written by Peter Selinger 2001-2017
</metadata>
<g transform="translate(0.000000,512.000000) scale(0.100000,-0.100000)"
fill="#000000" stroke="none">
<path d="M0 2560 l0 -2560 2560 0 2560 0 0 2560 0 2560 -2560 0 -2560 0 0
-2560z m3440 1762 c132 -41 226 -97 320 -192 96 -95 152 -189 191 -320 21 -70
23 -98 27 -408 l3 -332 -393 2 -393 3 -5 250 c-5 272 -7 282 -63 315 -31 19
-55 20 -572 20 -524 0 -541 -1 -573 -20 -66 -40 -63 13 -60 -1093 3 -952 4
-1003 21 -1029 40 -58 50 -59 632 -56 507 3 531 4 559 23 51 34 56 61 56 325
l0 240 396 0 395 0 -4 -327 c-4 -367 -8 -393 -77 -538 -92 -191 -259 -326
-480 -387 l-85 -23 -775 0 c-879 0 -841 -3 -1020 82 -81 39 -107 59 -186 137
-76 76 -98 106 -138 186 -89 181 -86 125 -86 1375 0 716 4 1112 11 1155 52
321 274 557 589 625 53 11 208 13 850 12 l785 -2 75 -23z"/>
</g>
</svg>
